<svg xmlns="http://www.w3.org/2000/svg" width="318" height="42" viewBox="0 0 318 42"><g><g><g><path fill="#395799" d="M21 0C32.598 0 42 9.4 42 21c0 11.597-9.402 21-21 21S0 32.596 0 21C0 9.4 9.402 0 21 0z"/></g><g><path fill="#19b2f5" d="M76 0C87.598 0 97 9.4 97 21c0 11.597-9.402 21-21 21s-21-9.403-21-21C55 9.4 64.402 0 76 0z"/></g><g><path fill="#f05b44" d="M131 0c11.598 0 21 9.401 21 21 0 11.597-9.402 21-21 21s-21-9.403-21-21c0-11.599 9.402-21 21-21z"/></g><g><path fill="#9c0c1c" d="M186 0c11.598 0 21 9.401 21 21 0 11.597-9.402 21-21 21s-21-9.403-21-21c0-11.599 9.402-21 21-21z"/></g><g><path fill="#0da6be" d="M241 0c11.598 0 21 9.401 21 21 0 11.597-9.402 21-21 21s-21-9.403-21-21c0-11.599 9.402-21 21-21z"/></g><g><path fill="#ea4c89" d="M297 0c11.598 0 21 9.401 21 21 0 11.597-9.402 21-21 21s-21-9.403-21-21c0-11.599 9.402-21 21-21z"/></g><g><g><text dominant-baseline="text-before-edge" style="line-height:42px" fill="#fff" font-family="'FontAwesome','FontAwesome'" font-size="16" font-style="none" font-weight="400" transform="translate(290 13)"><tspan style="font-kerning:normal"></tspan></text></g></g><g><g><text dominant-baseline="text-before-edge" style="line-height:42px" fill="#fff" font-family="'FontAwesome','FontAwesome'" font-size="16" font-style="none" font-weight="400" transform="translate(234 14)"><tspan style="font-kerning:normal"></tspan></text></g></g><g><g><text dominant-baseline="text-before-edge" style="line-height:42px" fill="#fff" font-family="'FontAwesome','FontAwesome'" font-size="16" font-style="none" font-weight="400" transform="translate(179 13)"><tspan style="font-kerning:normal"></tspan></text></g></g><g><g><text dominant-baseline="text-before-edge" style="line-height:42px" fill="#fff" font-family="'FontAwesome','FontAwesome'" font-size="16" font-style="none" font-weight="400" transform="translate(124 13)"><tspan style="font-kerning:normal"></tspan></text></g></g><g><g><text dominant-baseline="text-before-edge" style="line-height:42px" fill="#fff" font-family="'FontAwesome','FontAwesome'" font-size="16" font-style="none" font-weight="400" transform="translate(69 14)"><tspan style="font-kerning:normal"></tspan></text></g></g><g><g><text dominant-baseline="text-before-edge" style="line-height:42px" fill="#fff" font-family="'FontAwesome','FontAwesome'" font-size="16" font-style="none" font-weight="400" transform="translate(16 13)"><tspan style="font-kerning:normal"></tspan></text></g></g></g></g></svg>