<svg xmlns="http://www.w3.org/2000/svg" width="5" height="20" viewBox="0 0 5 20"><g><g><path fill="#a3b1c4" d="M.012 17.932c.038-1.104 1.06-1.971 2.284-1.938 1.223.034 2.185.956 2.147 2.06-.037 1.104-1.06 1.97-2.283 1.938-1.224-.035-2.186-.957-2.148-2.06zm.272-7.994C.322 8.833 1.344 7.967 2.568 8c1.224.034 2.185.956 2.148 2.06-.038 1.104-1.06 1.971-2.284 1.938-1.224-.035-2.185-.957-2.148-2.06zm.273-7.994C.594.839 1.617-.028 2.84.006c1.224.033 2.186.956 2.148 2.06-.038 1.103-1.06 1.971-2.284 1.937C1.481 3.969.52 3.047.557 1.943z"/></g></g></svg>